<?xml version="1.0" encoding="iso-8859-1"?>
<!-- Generator: Adobe Illustrator 19.0.0, SVG Export Plug-In . SVG Version: 6.00 Build 0)  -->
<svg version="1.1" id="Capa_1" xmlns="http://www.w3.org/2000/svg" xmlns:xlink="http://www.w3.org/1999/xlink" x="0px" y="0px"
	 viewBox="0 0 512 512" style="enable-background:new 0 0 512 512;" xml:space="preserve">
<circle style="fill:#FF9811;" cx="256" cy="256" r="128"/>
<g>
	<path style="fill:#231F20;" d="M256,392.533c-75.409,0-136.533-61.124-136.533-136.533S180.591,119.467,256,119.467
		S392.533,180.591,392.533,256C392.448,331.366,331.366,392.448,256,392.533z M256,136.533c-65.98,0-119.467,53.487-119.467,119.467
		S190.02,375.467,256,375.467S375.467,321.98,375.467,256C375.398,190.046,321.954,136.602,256,136.533z"/>
	<path style="fill:#231F20;" d="M256,102.4c-4.71,0-8.533-3.823-8.533-8.533V8.533C247.467,3.823,251.29,0,256,0
		c4.71,0,8.533,3.823,8.533,8.533v85.333C264.533,98.577,260.71,102.4,256,102.4z"/>
	<path style="fill:#231F20;" d="M141.355,149.888c-2.261,0-4.437-0.896-6.033-2.5L74.982,87.04
		c-3.465-3.191-3.695-8.593-0.503-12.058c3.191-3.465,8.593-3.695,12.058-0.503c0.171,0.162,0.341,0.324,0.503,0.503l60.339,60.339
		c3.328,3.337,3.328,8.738,0,12.066c-1.596,1.596-3.772,2.5-6.033,2.5L141.355,149.888L141.355,149.888z"/>
	<path style="fill:#231F20;" d="M93.867,264.533H8.533C3.823,264.533,0,260.71,0,256c0-4.71,3.823-8.533,8.533-8.533h85.333
		c4.71,0,8.533,3.823,8.533,8.533C102.4,260.71,98.577,264.533,93.867,264.533z"/>
	<path style="fill:#231F20;" d="M81.015,439.518c-4.71,0-8.533-3.823-8.533-8.533c0-2.261,0.896-4.429,2.5-6.033l60.339-60.339
		c3.388-3.277,8.789-3.183,12.066,0.213c3.191,3.311,3.191,8.55,0,11.853L87.04,437.018
		C85.444,438.613,83.277,439.518,81.015,439.518z"/>
	<path style="fill:#231F20;" d="M256,512c-4.71,0-8.533-3.823-8.533-8.533v-85.333c0-4.71,3.823-8.533,8.533-8.533
		c4.71,0,8.533,3.823,8.533,8.533v85.333C264.533,508.177,260.71,512,256,512z"/>
	<path style="fill:#231F20;" d="M430.985,439.518c-2.261,0-4.437-0.896-6.033-2.5l-60.339-60.339
		c-3.277-3.388-3.183-8.789,0.205-12.066c3.311-3.191,8.55-3.191,11.861,0l60.339,60.348c3.328,3.337,3.328,8.738,0,12.066
		C435.413,438.63,433.246,439.526,430.985,439.518L430.985,439.518z"/>
	<path style="fill:#231F20;" d="M503.467,264.533h-85.333c-4.71,0-8.533-3.823-8.533-8.533c0-4.71,3.823-8.533,8.533-8.533h85.333
		c4.71,0,8.533,3.823,8.533,8.533C512,260.71,508.177,264.533,503.467,264.533z"/>
	<path style="fill:#231F20;" d="M370.645,149.888c-4.71,0-8.533-3.823-8.533-8.533c0-2.261,0.896-4.429,2.5-6.033l60.348-60.339
		c3.191-3.465,8.593-3.695,12.058-0.503c3.465,3.191,3.695,8.593,0.503,12.058c-0.162,0.171-0.324,0.341-0.503,0.503l-60.339,60.339
		C375.083,148.983,372.907,149.888,370.645,149.888z"/>
</g>
<g>
</g>
<g>
</g>
<g>
</g>
<g>
</g>
<g>
</g>
<g>
</g>
<g>
</g>
<g>
</g>
<g>
</g>
<g>
</g>
<g>
</g>
<g>
</g>
<g>
</g>
<g>
</g>
<g>
</g>
</svg>
