<?xml version="1.0" encoding="iso-8859-1"?>
<!-- Generator: Adobe Illustrator 19.0.0, SVG Export Plug-In . SVG Version: 6.00 Build 0)  -->
<svg version="1.1" id="Capa_1" xmlns="http://www.w3.org/2000/svg" xmlns:xlink="http://www.w3.org/1999/xlink" x="0px" y="0px"
	 viewBox="0 0 512.004 512.004" style="enable-background:new 0 0 512.004 512.004;" xml:space="preserve">
<path style="fill:#27AAE1;" d="M418.06,204.842c-1.451,0-2.902,0-4.268,0.085c2.817-11.19,4.251-22.687,4.268-34.227
	c0-75.427-61.139-136.565-136.565-136.565S144.93,95.274,144.93,170.701c0,1.963,0,3.926,0.171,5.889
	c-11.011-3.926-22.619-5.924-34.312-5.889c-56.564,0-102.424,45.86-102.424,102.424s45.86,102.424,102.424,102.424H418.06
	c47.141,0,85.353-38.213,85.353-85.353S465.201,204.842,418.06,204.842z"/>
<g>
	<path style="fill:#231F20;" d="M418.06,384.084H110.789C49.505,383.99-0.094,334.238,0,272.954s49.846-110.882,111.13-110.789
		c8.544,0.017,17.054,1.016,25.367,2.979C139.51,85.066,206.862,22.587,286.949,25.6c78.004,2.936,139.706,67.045,139.646,145.101
		c-0.009,8.655-0.777,17.293-2.287,25.811c51.741,3.423,90.91,48.139,87.487,99.88C508.526,345.752,467.523,384.11,418.06,384.084z
		 M110.789,179.236c-51.852,0-93.889,42.036-93.889,93.889s42.036,93.889,93.889,93.889H418.06
		c42.429,0,76.818-34.389,76.818-76.818s-34.389-76.818-76.818-76.818c-1.289,0-2.561,0-3.747,0.068
		c-2.723,0.196-5.369-0.947-7.084-3.064c-1.733-2.091-2.373-4.891-1.707-7.528c2.646-10.516,3.986-21.313,4.003-32.153
		c0-70.707-57.323-128.03-128.03-128.03s-128.03,57.323-128.03,128.03c0,1.707,0,3.414,0.137,5.121
		c0.41,4.694-3.064,8.834-7.759,9.244c-1.229,0.111-2.467-0.051-3.628-0.469C132.127,181.011,121.492,179.193,110.789,179.236z"/>
	<path style="fill:#231F20;" d="M460.737,418.225H51.041c-4.712,0-8.535-3.824-8.535-8.535s3.824-8.535,8.535-8.535h409.696
		c4.711,0,8.535,3.824,8.535,8.535S465.448,418.225,460.737,418.225z"/>
	<path style="fill:#231F20;" d="M460.737,452.367H51.041c-4.712,0-8.535-3.824-8.535-8.535s3.824-8.535,8.535-8.535h409.696
		c4.711,0,8.535,3.824,8.535,8.535S465.448,452.367,460.737,452.367z"/>
	<path style="fill:#231F20;" d="M460.737,486.508H51.041c-4.712,0-8.535-3.824-8.535-8.535c0-4.711,3.824-8.535,8.535-8.535h409.696
		c4.711,0,8.535,3.824,8.535,8.535C469.272,482.684,465.448,486.508,460.737,486.508z"/>
</g>
<g>
</g>
<g>
</g>
<g>
</g>
<g>
</g>
<g>
</g>
<g>
</g>
<g>
</g>
<g>
</g>
<g>
</g>
<g>
</g>
<g>
</g>
<g>
</g>
<g>
</g>
<g>
</g>
<g>
</g>
</svg>
