<?xml version="1.0" encoding="iso-8859-1"?>
<!-- Generator: Adobe Illustrator 19.0.0, SVG Export Plug-In . SVG Version: 6.00 Build 0)  -->
<svg version="1.1" id="Capa_1" xmlns="http://www.w3.org/2000/svg" xmlns:xlink="http://www.w3.org/1999/xlink" x="0px" y="0px"
	 viewBox="0 0 511.998 511.998" style="enable-background:new 0 0 511.998 511.998;" xml:space="preserve">
<path style="fill:#27AAE1;" d="M418.091,264.505c-1.45,0-2.901,0-4.266,0.085c2.816-11.186,4.249-22.679,4.266-34.215
	c0-75.4-61.117-136.517-136.517-136.517s-136.517,61.117-136.517,136.517c0,1.962,0,3.925,0.171,5.887
	c-42.815-15.162-90.503-0.375-117.234,36.348C-5.181,318.464,5.092,382.525,50.944,415.698
	c17.449,12.628,38.438,19.437,59.982,19.454h307.164c47.124,0,85.323-38.199,85.323-85.323S465.215,264.505,418.091,264.505z"/>
<path style="fill:#FF9811;" d="M110.927,230.376c11.689-0.034,23.293,1.962,34.3,5.887c-0.171-1.962-0.171-3.925-0.171-5.887
	c-0.043-51.706,29.172-98.992,75.426-122.098C167.07,61.982,86.243,67.75,39.946,121.162
	C3.189,163.568-1.649,224.967,27.992,272.611C47.258,246.041,78.103,230.333,110.927,230.376z"/>
<path style="fill:#231F20;" d="M424.337,256.178c1.51-8.515,2.278-17.15,2.287-25.802c0.051-80.059-64.82-145.007-144.879-145.05
	c-20.725-0.009-41.211,4.42-60.076,12.995C162.94,51.197,77.13,60.6,30.006,119.328C-5.045,163.005-9.823,223.678,17.967,272.304
	c-33.396,51.365-18.822,120.067,32.534,153.454c17.986,11.698,38.976,17.926,60.426,17.926h307.164
	c51.834,0.026,93.881-41.971,93.907-93.805C512.023,300.435,473.679,259.446,424.337,256.178z M136.524,85.326
	c24.573-0.009,48.54,7.577,68.626,21.732c-1.058,0.657-2.056,1.365-3.089,2.039c-1.032,0.674-2.295,1.476-3.413,2.253
	c-1.536,1.058-3.02,2.176-4.497,3.285c-1.015,0.768-2.048,1.502-3.038,2.287c-1.613,1.28-3.166,2.619-4.727,3.968
	c-0.785,0.683-1.604,1.331-2.381,2.031c-2.278,2.073-4.497,4.206-6.664,6.408c-0.111,0.111-0.205,0.23-0.307,0.333
	c-2.039,2.107-4.002,4.266-5.904,6.485c-0.674,0.794-1.297,1.621-1.962,2.423c-1.28,1.57-2.56,3.14-3.78,4.761
	c-0.734,0.973-1.408,1.971-2.116,2.961c-1.075,1.51-2.142,3.02-3.157,4.565c-0.7,1.075-1.365,2.176-2.039,3.268
	c-0.939,1.519-1.86,3.038-2.747,4.59c-0.648,1.143-1.263,2.304-1.877,3.464c-0.853,1.553-1.63,3.106-2.389,4.693
	c-0.589,1.195-1.143,2.406-1.706,3.626c-0.717,1.596-1.408,3.2-2.065,4.812c-0.503,1.237-0.998,2.483-1.468,3.737
	c-0.623,1.647-1.203,3.319-1.758,5c-0.427,1.254-0.853,2.5-1.229,3.771c-0.529,1.706-0.998,3.481-1.459,5.239
	c-0.333,1.246-0.674,2.491-0.964,3.746c-0.435,1.852-0.802,3.729-1.169,5.597c-0.23,1.195-0.486,2.372-0.691,3.575
	c-0.35,2.09-0.614,4.206-0.853,6.322c-0.119,1.007-0.29,2.014-0.392,3.029c-0.316,3.14-0.555,6.305-0.674,9.497
	c-8.421-1.997-17.048-2.995-25.708-2.978c-4.155,0.017-8.31,0.265-12.44,0.751c-1.34,0.145-2.654,0.427-3.993,0.631
	c-2.747,0.41-5.486,0.853-8.191,1.476c-1.544,0.358-3.055,0.802-4.573,1.22c-2.449,0.674-4.881,1.391-7.278,2.227
	c-1.553,0.538-3.08,1.135-4.607,1.706c-2.312,0.921-4.573,1.911-6.826,2.986c-1.476,0.708-2.944,1.425-4.386,2.201
	c-2.244,1.195-4.42,2.5-6.578,3.848c-1.323,0.853-2.654,1.621-3.942,2.509c-2.287,1.561-4.471,3.268-6.647,5
	c-1.032,0.853-2.107,1.604-3.123,2.474c-2.927,2.526-5.725,5.196-8.37,8.012c-0.179,0.188-0.375,0.35-0.546,0.538l-0.085,0.077
	C0.22,198.303,24.605,126.708,83.802,97.596C100.21,89.524,118.248,85.326,136.524,85.326z M418.091,426.62H110.927
	c-51.834,0-93.856-42.022-93.856-93.856s42.022-93.856,93.856-93.856c10.708-0.034,21.331,1.783,31.416,5.384
	c4.437,1.596,9.317-0.708,10.913-5.145c0.418-1.169,0.58-2.415,0.469-3.652c-0.137-1.706-0.137-3.413-0.137-5.119
	c0-9.01,0.93-18.003,2.79-26.817c6.817-32.346,25.998-60.75,53.447-79.163c4.65-3.157,9.488-6.007,14.505-8.532l0,0
	c63.216-31.612,140.101-5.99,171.713,57.226c8.891,17.79,13.524,37.397,13.515,57.286c-0.017,10.836-1.365,21.629-4.01,32.141
	c-1.143,4.573,1.63,9.206,6.203,10.35c0.845,0.213,1.724,0.29,2.594,0.239c1.186-0.068,2.457-0.068,3.746-0.068
	c42.414,0,76.791,34.377,76.791,76.791S460.497,426.62,418.091,426.62z"/>
<g>
</g>
<g>
</g>
<g>
</g>
<g>
</g>
<g>
</g>
<g>
</g>
<g>
</g>
<g>
</g>
<g>
</g>
<g>
</g>
<g>
</g>
<g>
</g>
<g>
</g>
<g>
</g>
<g>
</g>
</svg>
