<svg id="Capa_1" enable-background="new 0 0 512.05 512.05" height="512" viewBox="0 0 512.05 512.05" width="512" xmlns="http://www.w3.org/2000/svg"><g><g><g><path d="m228.935 511.95c-6.399 0-12.233-4.225-14.24-10.298-2.002-6.058.158-12.962 5.308-16.752 5.121-3.768 12.149-3.883 17.403-.317 4.728 3.209 7.277 9.108 6.329 14.753-1.202 7.167-7.496 12.614-14.8 12.614z" fill="#7fa6fb"/><path d="m136.844 511.95h-121.819c-8.284 0-15-6.716-15-15s6.716-15 15-15h121.819c8.284 0 15 6.716 15 15s-6.715 15-15 15z" fill="#9cd6f4"/></g><g><path d="m103.487 363.418h-88.462c-8.284 0-15-6.716-15-15s6.716-15 15-15h88.462c8.284 0 15 6.716 15 15s-6.716 15-15 15z" fill="#9cd6f4"/><g><path d="m457.709 442.05c-18.866 0-36.092-9.568-46.079-25.595-4.381-7.031-2.233-16.282 4.797-20.663 7.035-4.382 16.283-2.233 20.664 4.797 4.473 7.177 12.18 11.461 20.618 11.461 13.408 0 24.316-10.908 24.316-24.316s-10.908-24.316-24.316-24.316h-292.775c-8.284 0-15-6.716-15-15s6.716-15 15-15h292.774c29.95 0 54.316 24.366 54.316 54.316.001 29.95-24.365 54.316-54.315 54.316z" fill="#4e6da0"/><path d="m457.709 333.418h-201.684v30h201.684c13.408 0 24.316 10.908 24.316 24.316s-10.908 24.316-24.316 24.316c-8.439 0-16.146-4.285-20.618-11.461-4.381-7.031-13.629-9.18-20.664-4.797-7.03 4.381-9.178 13.633-4.797 20.663 9.987 16.027 27.213 25.595 46.079 25.595 29.95 0 54.316-24.366 54.316-54.316 0-29.949-24.366-54.316-54.316-54.316z" fill="#2e3e6e"/></g></g><g><path d="m15.189 433.418c-6.176.033-11.873-3.765-14.135-9.531-2.327-5.931-.543-12.867 4.329-16.96 4.76-3.999 11.777-4.637 17.186-1.57 5.523 3.132 8.527 9.571 7.367 15.817-1.302 7.015-7.619 12.244-14.747 12.244z" fill="#9cd6f4"/><g><path d="m347.709 512.05c-18.866 0-36.092-9.568-46.079-25.595-4.381-7.031-2.233-16.282 4.797-20.663 7.033-4.382 16.283-2.233 20.664 4.797 4.473 7.177 12.18 11.461 20.618 11.461 13.408 0 24.316-10.908 24.316-24.316s-10.908-24.316-24.316-24.316h-272.775c-8.284 0-15-6.716-15-15s6.716-15 15-15h272.774c29.95 0 54.316 24.366 54.316 54.316.001 29.95-24.365 54.316-54.315 54.316z" fill="#4e6da0"/><path d="m347.709 403.418h-91.684v30h91.684c13.408 0 24.316 10.908 24.316 24.316s-10.908 24.316-24.316 24.316c-8.439 0-16.146-4.285-20.618-11.461-4.381-7.03-13.631-9.18-20.664-4.797-7.03 4.381-9.178 13.633-4.797 20.663 9.987 16.027 27.213 25.595 46.079 25.595 29.95 0 54.316-24.366 54.316-54.316 0-29.949-24.366-54.316-54.316-54.316z" fill="#2e3e6e"/></g></g></g><g><path d="m448.116 162.835h-29.585c1.369-5.204 2.105-10.665 2.105-16.3 0-35.296-28.613-63.91-63.91-63.91h-36.792v-18.715c0-35.296-28.613-63.91-63.909-63.91-35.296 0-63.91 28.613-63.91 63.91v18.716h-36.791c-35.296 0-63.91 28.613-63.91 63.91 0 5.634.736 11.095 2.105 16.3h-29.584c-35.296 0-63.91 28.613-63.91 63.91 0 35.296 28.613 63.91 63.91 63.91h384.181c35.296 0 63.909-28.613 63.909-63.91 0-35.298-28.613-63.911-63.909-63.911z" fill="#fbf4f4"/><path d="m448.116 162.835h-29.585c1.369-5.204 2.105-10.665 2.105-16.3 0-35.296-28.613-63.91-63.909-63.91h-36.791v-18.715c0-35.296-28.613-63.91-63.91-63.91v290.654h192.091c35.296 0 63.909-28.613 63.909-63.91-.001-35.296-28.614-63.909-63.91-63.909z" fill="#e2e9ee"/></g></g></svg>